# xmcd
#
# Track frame offsets: 
#        150
#        32268
#        101297
#        117851
#        143396
#        156852
#        175870
#        189330
#        201394
#        216491
#        258104
#        268804
#        293533
#
# Disc length: 4121 seconds
#
# Revision: 0
# Processed by: cddbd v1.5.2PL0 Copyright (c) Steve Scherf et al.
# Submitted via: ExactAudioCopy v0.99pb4
#
DISCID=af10170d
DTITLE=Various Artist - Funky Breaks - Sampled Soul
DYEAR=2007
DGENRE=Funk
TTITLE0=Rick James - Super Freak
TTITLE1=Funkadelic - (Not just) Knee Deep
TTITLE2=Chi-Lites - We Are Neighbours
TTITLE3=Cameo - Candy
TTITLE4=Bar-Kays - Are You Being Real
TTITLE5=Aaron Neville - Hercules
TTITLE6=Young-Holt Unlimited - Soulful Strut
TTITLE7=Ohio Players - Funky Worm
TTITLE8=Fatback Band - Wicky Wacky
TTITLE9=James Brown - Funky Drummer
TTITLE10=Barbara Lynn - I'm a Good Woman
TTITLE11=Sylvia Striplin - You Can't Turn Me Away
TTITLE12=Al Green - Free At Last
EXTD=
EXTT0=
EXTT1=
EXTT2=
EXTT3=
EXTT4=
EXTT5=
EXTT6=
EXTT7=
EXTT8=
EXTT9=
EXTT10=
EXTT11=
EXTT12=
PLAYORDER=
